<svg id="Layer_1" data-name="Layer 1" xmlns="http://www.w3.org/2000/svg" viewBox="0 0 40.54 14.96"><defs><style>.cls-1{fill:#0c3b62;}.cls-2{fill:#f44336;}</style></defs><title>aurigny-logo</title><g id="aurigny-logo"><path class="cls-1" d="M27,1.41a.49.49,0,0,1-1,0V0h-.37V1.42a.86.86,0,0,0,1.72,0V0H27Z"/><path class="cls-1" d="M29.09,1.87h-1v-.6h.75V.94h-.75V.36H29V0H27.76V2.2h1.33Z"/><path class="cls-1" d="M30.54.7A.32.32,0,0,1,30.2,1h-.38V.36h.3a.48.48,0,0,1,.27,0,.3.3,0,0,1,.15.29m.05.63a.15.15,0,0,0,0-.06.62.62,0,0,0,.36-.59.6.6,0,0,0-.38-.59.9.9,0,0,0-.4,0h-.68V2.2h.37V1.37h.39l.44.83h.41Z"/><path class="cls-1" d="M31.72.81c0-.05,0-.1,0-.15l.1.17.94,1.37h.34V0h-.36V1.57a.62.62,0,0,0-.1-.16L31.7,0h-.35V2.2h.37Z"/><path class="cls-1" d="M34.24,1c-.21-.09-.4-.17-.4-.34s.15-.26.34-.26a.7.7,0,0,1,.44.17l0,0,.17-.31,0,0A.89.89,0,0,0,34.18,0a.66.66,0,0,0-.71.62c0,.37.32.51.6.63s.41.18.41.36a.29.29,0,0,1-.32.28.84.84,0,0,1-.51-.22l0,0-.2.28,0,0a1,1,0,0,0,.71.29.63.63,0,0,0,.7-.62c0-.4-.34-.55-.61-.66"/><path class="cls-1" d="M36.53,1.87h-1v-.6h.74V.94h-.74V.36h.91V0H35.2V2.2h1.33Z"/><path class="cls-1" d="M38,0l-.4.7c0,.07-.07.14-.09.2l-.1-.2L37,0H36.6l.73,1.24V2.2h.37V1.28L38.42,0Z"/><path class="cls-1" d="M39,0h-.36l-.14.65h.28Z"/><path class="cls-1" d="M39.93,1c-.21-.09-.4-.17-.4-.34s.15-.26.34-.26a.67.67,0,0,1,.44.17l0,0,.17-.31,0,0A.89.89,0,0,0,39.87,0a.66.66,0,0,0-.71.62c0,.37.32.51.6.63s.41.18.41.36a.29.29,0,0,1-.32.28.77.77,0,0,1-.5-.22l0,0-.2.28,0,0a1,1,0,0,0,.71.29.63.63,0,0,0,.7-.62c0-.4-.34-.55-.61-.66"/><path class="cls-1" d="M29.55,3.39a.84.84,0,0,0,.05.17l.21.61h-.53l.22-.61a1.54,1.54,0,0,1,.05-.17m-.18-.46-.78,2.16H29l.21-.6h.73l.21.6h.38l-.77-2.16Z"/><rect class="cls-1" x="30.76" y="2.94" width="0.37" height="2.16"/><path class="cls-1" d="M31.94,3.27h.3a.53.53,0,0,1,.27,0,.31.31,0,0,1,.14.29.31.31,0,0,1-.33.34h-.38Zm.73.9A.61.61,0,0,0,33,3.59a.6.6,0,0,0-.37-.6,1.09,1.09,0,0,0-.4-.05h-.68V5.1h.37V4.27h.38l.44.83h.42l-.47-.87a.61.61,0,0,1,0-.06"/><path class="cls-1" d="M33.83,2.94h-.37V5.1h1.3V4.77h-.93Z"/><rect class="cls-1" x="35.12" y="2.94" width="0.37" height="2.16"/><path class="cls-1" d="M37.26,4.33s0,.09,0,.14l-.1-.16-.94-1.37h-.34V5.1h.36V3.56a1,1,0,0,0,.1.17l.94,1.37h.34V2.94h-.37Z"/><path class="cls-1" d="M38.49,4.17h.75V3.84h-.75V3.27h.92V2.94H38.12V5.1h1.22l.12-.33h-1Z"/><path class="cls-1" d="M24.53,1.4h.55v.32a1,1,0,0,1-.55.17.7.7,0,0,1-.67-.45V1.39s0,0,0-.08,0-.06,0-.09v0s0-.06,0-.09a.73.73,0,0,1,.75-.77,1,1,0,0,1,.57.19l0,0,.19-.28,0,0A1.21,1.21,0,0,0,24.52,0a1.08,1.08,0,0,0-1.1,1.11v.1a1.07,1.07,0,0,0,1.06,1h0v0h0a1.32,1.32,0,0,0,.57-.12h0l.05,0a.66.66,0,0,0,.27-.23h0V1.07h-.89Z"/><path class="cls-1" d="M5.93,12.5v-.22c-.21-.11-.3-.42-.3-1V9a3,3,0,0,0-.4-1.93A2.68,2.68,0,0,0,3,6.32C1.3,6.32.36,7,.17,8.34H2c.08-.44.41-.68,1-.68s.78.18.78.53v.15c0,.47-.75.38-2.15.71A1.79,1.79,0,0,0,0,10.92,1.71,1.71,0,0,0,1.89,12.7a2.57,2.57,0,0,0,1.92-.82,5,5,0,0,0,.1.62ZM3.75,9.66v.69A1,1,0,0,1,2.6,11.41a.67.67,0,0,1-.72-.71c0-.37.2-.55.65-.68a4.36,4.36,0,0,0,1.22-.36"/><path class="cls-1" d="M12.06,12.5H10.13v-.83a2.11,2.11,0,0,1-1.84,1,1.79,1.79,0,0,1-2-2V6.46h2V9.84c0,.9.16,1.31.83,1.31s1-.47,1-1.46V6.46h2Z"/><path class="cls-1" d="M12.72,6.46h1.9V7.52a2,2,0,0,1,2-1.2V8.27l-.49,0a1.27,1.27,0,0,0-1.22.56,3.62,3.62,0,0,0-.21,1.68v2h-2Z"/><rect class="cls-1" x="17.17" y="6.46" width="1.97" height="6.04"/><path class="cls-1" d="M20,13c.18,1.32,1.13,1.92,2.95,1.92a3,3,0,0,0,2.66-1.14A4.46,4.46,0,0,0,26,11.45v-5H24.12v.81a2.18,2.18,0,0,0-1.91-1c-1.49,0-2.55,1.26-2.55,3.17s1.08,3.09,2.52,3.09a2.1,2.1,0,0,0,1.87-1v.64c0,.92-.25,1.32-1.16,1.32-.51,0-.81-.17-.91-.53Zm1.71-3.56c0-1.06.42-1.62,1.17-1.62S24,8.39,24,9.46,23.58,11,22.84,11s-1.13-.57-1.13-1.54"/><path class="cls-1" d="M26.63,6.46h1.94v.83a2,2,0,0,1,1.83-1c1.47,0,2,.71,2,2.26V12.5h-2v-3c0-1.12,0-1.65-.83-1.65s-1,.46-1,1.45V12.5h-2Z"/><path class="cls-1" d="M35.48,14.79A4.18,4.18,0,0,1,33.9,15h-.52V13.39h.39c.64,0,.95-.11.95-.61a2.94,2.94,0,0,0-.3-1l-2-5.35h2.13l1.13,4.12,1.16-4.12h2.11l-2.41,6.72c-.32.87-.56,1.42-1,1.62"/><path class="cls-2" d="M18.14,6A1.08,1.08,0,0,1,17,4.86a1.13,1.13,0,1,1,2.25,0A1.09,1.09,0,0,1,18.15,6Z"/></g></svg>